<svg width="690" height="606" viewBox="0 0 690 606" fill="none" xmlns="http://www.w3.org/2000/svg">
<ellipse cx="459.5" cy="536.955" rx="35.5" ry="11" fill="#CC5130" fill-opacity="0.38"/>
<ellipse cx="233.5" cy="547.5" rx="233.5" ry="58.5" fill="#CC5130" fill-opacity="0.25"/>
<path d="M689.277 84.3903C689.277 130.998 655.138 151.983 518.553 174.491C403.045 193.527 321.808 160.532 318 97.7151C328.155 25.3805 424.265 0 518.553 0C584.558 0 689.277 37.7828 689.277 84.3903Z" fill="white"/>
<path d="M488.744 46.7031V72H482.994V54.9219L480.697 72H476.619L474.197 55.3125V72H468.447V46.7031H476.962C477.212 48.224 477.478 50.0156 477.759 52.0781L478.666 58.5156L480.166 46.7031H488.744ZM505.306 72H499.025V63.8438C498.212 63.8438 497.65 64.0156 497.337 64.3594C497.035 64.7031 496.884 65.349 496.884 66.2969V72H491.103V67.1406C491.103 65.901 491.171 65.0104 491.306 64.4688C491.442 63.9167 491.749 63.4844 492.228 63.1719C492.718 62.8594 493.546 62.5469 494.712 62.2344C493.202 62.099 492.223 61.6719 491.775 60.9531C491.327 60.224 491.103 58.9271 491.103 57.0625C491.103 55 491.697 53.5208 492.884 52.625C494.082 51.7188 496.666 51.2656 500.634 51.2656H505.306V72ZM499.025 60.25V55.2969H498.384C497.926 55.2969 497.561 55.4323 497.291 55.7031C497.02 55.9635 496.884 56.5833 496.884 57.5625V57.8281C496.884 58.8281 497.035 59.4844 497.337 59.7969C497.65 60.099 498.212 60.25 499.025 60.25ZM522.197 66.5312C522.197 68.6458 521.733 70.0885 520.806 70.8594C519.89 71.6198 517.89 72 514.806 72H507.572V51.2656H515.025C517.577 51.2656 519.332 51.6875 520.291 52.5312C521.259 53.375 521.744 54.8177 521.744 56.8594C521.744 59.2031 520.525 60.5365 518.087 60.8594C519.358 61.0677 520.358 61.5677 521.087 62.3594C521.827 63.1406 522.197 64.125 522.197 65.3125V66.5312ZM513.837 58.9688C514.796 58.9688 515.379 58.849 515.587 58.6094C515.806 58.3698 515.916 57.8958 515.916 57.1875C515.916 56.5938 515.796 56.1823 515.556 55.9531C515.317 55.724 514.744 55.6094 513.837 55.6094V58.9688ZM515.916 65.5625V64.8594C515.916 63.9635 515.796 63.4062 515.556 63.1875C515.317 62.9583 514.744 62.8438 513.837 62.8438V67.6406C514.681 67.6406 515.238 67.5208 515.509 67.2812C515.78 67.0312 515.916 66.4583 515.916 65.5625ZM528.244 66.8438V72H523.478V66.8438H528.244ZM534.15 66.8438V72H529.384V66.8438H534.15ZM540.056 66.8438V72H535.291V66.8438H540.056ZM389.916 85.7031H400.884V90.7656H396.494V95.5625H400.603V100.375H396.494V105.938H401.322V111H389.916V85.7031ZM416.994 98.0938H411.041V95.7031C411.041 94.8698 410.973 94.3073 410.837 94.0156C410.702 93.7135 410.452 93.5625 410.087 93.5625C409.723 93.5625 409.478 93.6927 409.353 93.9531C409.228 94.2135 409.166 94.7969 409.166 95.7031V105.484C409.166 106.224 409.259 106.781 409.447 107.156C409.634 107.521 409.91 107.703 410.275 107.703C410.702 107.703 410.988 107.51 411.134 107.125C411.291 106.74 411.369 106.01 411.369 104.938V102.469H416.994C416.983 104.125 416.921 105.37 416.806 106.203C416.702 107.026 416.353 107.875 415.759 108.75C415.176 109.615 414.41 110.271 413.462 110.719C412.515 111.156 411.343 111.375 409.947 111.375C408.166 111.375 406.754 111.073 405.712 110.469C404.671 109.854 403.931 109 403.494 107.906C403.067 106.802 402.853 105.24 402.853 103.219V97.3281C402.853 95.5677 403.03 94.2396 403.384 93.3438C403.738 92.4479 404.494 91.651 405.65 90.9531C406.806 90.2448 408.212 89.8906 409.869 89.8906C411.515 89.8906 412.921 90.2396 414.087 90.9375C415.254 91.6354 416.03 92.5156 416.416 93.5781C416.801 94.6406 416.994 96.1458 416.994 98.0938ZM431.384 90.2656V94.6094H427.775V111H421.478V94.6094H417.853V90.2656H431.384ZM447.353 105.078C447.353 106.974 447.129 108.333 446.681 109.156C446.244 109.979 445.551 110.495 444.603 110.703C443.655 110.901 442.108 111 439.962 111H432.666V90.2656H438.931V97.1719H439.962C441.973 97.1719 443.473 97.2917 444.462 97.5312C445.452 97.7708 446.181 98.2969 446.65 99.1094C447.119 99.9219 447.353 101.208 447.353 102.969V105.078ZM441.072 104.312V103.484C441.072 102.411 440.962 101.76 440.744 101.531C440.535 101.302 439.931 101.172 438.931 101.141V106.641C439.765 106.641 440.327 106.536 440.619 106.328C440.921 106.109 441.072 105.438 441.072 104.312ZM469.431 111H463.134V105.297C462.343 106.047 461.082 106.422 459.353 106.422C458.155 106.422 457.186 106.208 456.447 105.781C455.707 105.354 455.254 104.734 455.087 103.922C454.921 103.109 454.837 101.797 454.837 99.9844V90.2656H461.15V100.281C461.15 101.385 461.202 102.13 461.306 102.516C461.41 102.901 461.686 103.094 462.134 103.094C462.509 103.094 462.77 102.922 462.916 102.578C463.061 102.234 463.134 101.542 463.134 100.5V90.2656H469.431V111ZM484.041 90.2656V94.6094H480.431V111H474.134V94.6094H470.509V90.2656H484.041ZM499.603 97.5469V102.625C499.603 104.49 499.509 105.859 499.322 106.734C499.134 107.599 498.733 108.411 498.119 109.172C497.504 109.922 496.712 110.479 495.744 110.844C494.785 111.198 493.681 111.375 492.431 111.375C491.035 111.375 489.853 111.224 488.884 110.922C487.916 110.609 487.16 110.146 486.619 109.531C486.087 108.906 485.707 108.156 485.478 107.281C485.249 106.396 485.134 105.073 485.134 103.312V98C485.134 96.0729 485.343 94.5677 485.759 93.4844C486.176 92.401 486.926 91.5312 488.009 90.875C489.093 90.2188 490.478 89.8906 492.166 89.8906C493.582 89.8906 494.796 90.1042 495.806 90.5312C496.827 90.9479 497.613 91.4948 498.166 92.1719C498.718 92.849 499.093 93.5469 499.291 94.2656C499.499 94.9844 499.603 96.0781 499.603 97.5469ZM493.291 95.9844C493.291 94.9219 493.233 94.2552 493.119 93.9844C493.004 93.7031 492.759 93.5625 492.384 93.5625C492.009 93.5625 491.759 93.7031 491.634 93.9844C491.509 94.2552 491.447 94.9219 491.447 95.9844V105.344C491.447 106.323 491.509 106.964 491.634 107.266C491.759 107.557 492.004 107.703 492.369 107.703C492.744 107.703 492.988 107.568 493.103 107.297C493.228 107.026 493.291 106.443 493.291 105.547V95.9844ZM507.353 111V90.2656H522.134V111H515.853V94.6094H513.619V111H507.353ZM538.666 97.5469V102.625C538.666 104.49 538.572 105.859 538.384 106.734C538.197 107.599 537.796 108.411 537.181 109.172C536.567 109.922 535.775 110.479 534.806 110.844C533.848 111.198 532.744 111.375 531.494 111.375C530.098 111.375 528.916 111.224 527.947 110.922C526.978 110.609 526.223 110.146 525.681 109.531C525.15 108.906 524.77 108.156 524.541 107.281C524.311 106.396 524.197 105.073 524.197 103.312V98C524.197 96.0729 524.405 94.5677 524.822 93.4844C525.238 92.401 525.988 91.5312 527.072 90.875C528.155 90.2188 529.541 89.8906 531.228 89.8906C532.645 89.8906 533.858 90.1042 534.869 90.5312C535.89 90.9479 536.676 91.4948 537.228 92.1719C537.78 92.849 538.155 93.5469 538.353 94.2656C538.561 94.9844 538.666 96.0781 538.666 97.5469ZM532.353 95.9844C532.353 94.9219 532.296 94.2552 532.181 93.9844C532.067 93.7031 531.822 93.5625 531.447 93.5625C531.072 93.5625 530.822 93.7031 530.697 93.9844C530.572 94.2552 530.509 94.9219 530.509 95.9844V105.344C530.509 106.323 530.572 106.964 530.697 107.266C530.822 107.557 531.067 107.703 531.431 107.703C531.806 107.703 532.051 107.568 532.166 107.297C532.291 107.026 532.353 106.443 532.353 105.547V95.9844ZM555.056 101H546.884V105.484C546.884 106.422 546.952 107.026 547.087 107.297C547.223 107.568 547.483 107.703 547.869 107.703C548.348 107.703 548.666 107.526 548.822 107.172C548.988 106.807 549.072 106.109 549.072 105.078V102.344H555.056V103.875C555.056 105.156 554.973 106.141 554.806 106.828C554.65 107.516 554.275 108.25 553.681 109.031C553.087 109.812 552.332 110.401 551.416 110.797C550.509 111.182 549.369 111.375 547.994 111.375C546.66 111.375 545.483 111.182 544.462 110.797C543.442 110.411 542.645 109.885 542.072 109.219C541.509 108.542 541.119 107.802 540.9 107C540.681 106.188 540.572 105.01 540.572 103.469V97.4219C540.572 95.6094 540.817 94.1823 541.306 93.1406C541.796 92.0885 542.598 91.2865 543.712 90.7344C544.827 90.1719 546.108 89.8906 547.556 89.8906C549.327 89.8906 550.785 90.2292 551.931 90.9062C553.087 91.5729 553.895 92.4635 554.353 93.5781C554.822 94.6823 555.056 96.2396 555.056 98.25V101ZM548.728 97.625V96.1094C548.728 95.0365 548.671 94.3438 548.556 94.0312C548.442 93.7188 548.207 93.5625 547.853 93.5625C547.416 93.5625 547.145 93.6979 547.041 93.9688C546.936 94.2292 546.884 94.9427 546.884 96.1094V97.625H548.728ZM571.087 98.0938H565.134V95.7031C565.134 94.8698 565.067 94.3073 564.931 94.0156C564.796 93.7135 564.546 93.5625 564.181 93.5625C563.817 93.5625 563.572 93.6927 563.447 93.9531C563.322 94.2135 563.259 94.7969 563.259 95.7031V105.484C563.259 106.224 563.353 106.781 563.541 107.156C563.728 107.521 564.004 107.703 564.369 107.703C564.796 107.703 565.082 107.51 565.228 107.125C565.384 106.74 565.462 106.01 565.462 104.938V102.469H571.087C571.077 104.125 571.015 105.37 570.9 106.203C570.796 107.026 570.447 107.875 569.853 108.75C569.27 109.615 568.504 110.271 567.556 110.719C566.608 111.156 565.436 111.375 564.041 111.375C562.259 111.375 560.848 111.073 559.806 110.469C558.765 109.854 558.025 109 557.587 107.906C557.16 106.802 556.947 105.24 556.947 103.219V97.3281C556.947 95.5677 557.124 94.2396 557.478 93.3438C557.832 92.4479 558.587 91.651 559.744 90.9531C560.9 90.2448 562.306 89.8906 563.962 89.8906C565.608 89.8906 567.015 90.2396 568.181 90.9375C569.348 91.6354 570.124 92.5156 570.509 93.5781C570.895 94.6406 571.087 96.1458 571.087 98.0938ZM585.478 90.2656V94.6094H581.869V111H575.572V94.6094H571.947V90.2656H585.478ZM601.447 105.078C601.447 106.974 601.223 108.333 600.775 109.156C600.337 109.979 599.645 110.495 598.697 110.703C597.749 110.901 596.202 111 594.056 111H586.759V90.2656H593.025V97.1719H594.056C596.067 97.1719 597.567 97.2917 598.556 97.5312C599.546 97.7708 600.275 98.2969 600.744 99.1094C601.212 99.9219 601.447 101.208 601.447 102.969V105.078ZM595.166 104.312V103.484C595.166 102.411 595.056 101.76 594.837 101.531C594.629 101.302 594.025 101.172 593.025 101.141V106.641C593.858 106.641 594.421 106.536 594.712 106.328C595.015 106.109 595.166 105.438 595.166 104.312ZM609.978 93.8594H603.666C603.686 91.6406 603.874 90.0208 604.228 89C604.582 87.9792 605.348 87.0885 606.525 86.3281C607.712 85.5573 609.223 85.1719 611.056 85.1719C612.379 85.1719 613.535 85.3802 614.525 85.7969C615.515 86.2135 616.301 86.7969 616.884 87.5469C617.468 88.2865 617.895 89.0885 618.166 89.9531C618.436 90.8177 618.572 92.1719 618.572 94.0156V97.1094C618.572 98.5156 618.442 99.6458 618.181 100.5C617.921 101.354 617.353 102.104 616.478 102.75C615.603 103.396 614.577 103.719 613.4 103.719C611.869 103.719 610.728 103.12 609.978 101.922V104.641H604.087V97.6875H609.837C609.858 98.6458 610.202 99.125 610.869 99.125C611.39 99.125 611.718 98.9167 611.853 98.5C611.999 98.0729 612.072 97.0365 612.072 95.3906V91.1875C612.072 90.2604 612.004 89.6406 611.869 89.3281C611.744 89.0052 611.488 88.8438 611.103 88.8438C610.624 88.8438 610.317 89.0573 610.181 89.4844C610.046 89.901 609.978 90.849 609.978 92.3281V93.8594ZM609.978 105.938V111H604.087V105.938H609.978Z" fill="#343440"/>
<path d="M289.866 559.677C272.673 572.807 259.592 551.01 222.216 559.677C211.734 562.108 200.519 551.921 190.764 533.154C108.856 575.914 43.6815 490.393 33.733 437.508C23.7845 384.624 75.0979 254.77 75.0979 216.023C75.0979 177.277 120.652 172.653 144.737 197.682C168.823 222.712 115.939 322.315 89.2352 408.006C67.8721 476.558 137.581 491.494 175.106 490.393C154.667 411.453 156.919 282.724 232.681 197.682C239.51 180.942 227.2 167.444 222.216 159.474C211.128 144.905 229.99 109.369 256.602 84.8625L265.69 54.7529L275.639 84.8625C285.411 78.8388 300.63 77.391 312.291 84.8625L331.353 59.989C333.759 69.4139 335.853 77.7916 331.353 91.5869C341.818 99.432 357.516 136.79 344.434 172.653C360.381 218.229 387.491 329.106 368.354 408.006C357.889 453.208 359.011 518.584 393.77 533.154C428.529 547.723 390.032 559.677 383.305 559.677C376.577 559.677 344.434 538.384 331.353 511.86C310.049 504.762 275.738 494.825 256.602 511.86C232.681 533.154 323.13 534.274 289.866 559.677Z" fill="#E0603D"/>
<path fill-rule="evenodd" clip-rule="evenodd" d="M304.033 132.094C303.717 131.304 304.47 130.505 305.278 130.774L306.848 131.298C307.257 131.434 307.532 131.816 307.532 132.246V134.079C307.532 134.816 307.801 135.524 308.267 136.094C310.234 138.501 312.887 142.241 315.353 145.936C318.235 150.256 320.909 154.585 321.962 156.726C322.084 156.974 321.97 157.268 321.717 157.38C321.465 157.492 321.17 157.38 321.048 157.132C320.027 155.067 317.403 150.81 314.521 146.491C311.928 142.605 309.165 138.727 307.225 136.403C307.022 136.16 306.706 136.046 306.394 136.096C306.179 136.131 305.983 136.241 305.845 136.41C303.775 138.921 300.552 143.485 297.498 148.062C294.121 153.123 291.008 158.115 289.925 160.275C289.801 160.522 289.506 160.633 289.254 160.521C289.002 160.409 288.888 160.115 289.011 159.868C290.125 157.633 293.294 152.561 296.666 147.507C299.578 143.143 302.684 138.728 304.807 136.1C305.128 135.702 305.231 135.17 305.069 134.685L304.033 132.094Z" fill="#2A2A2A"/>
<path d="M301.295 128.056C296.687 112.558 280.526 92.9748 273.021 85.1207C277.733 78.3138 310.196 77.7905 314.909 85.1207C312.291 90.357 309.498 116.188 310.196 128.056H301.295Z" fill="#CC5130"/>
<path d="M326.429 124.916L336.901 120.203" stroke="#F5B3BC" stroke-width="2" stroke-linecap="round"/>
<path d="M277.367 125.962L266.895 121.25" stroke="#F5B3BC" stroke-width="2" stroke-linecap="round"/>
<path d="M328.365 129.766L339.152 125.828" stroke="#FABD00" stroke-width="2" stroke-linecap="round"/>
<path d="M275.431 130.813L264.644 126.875" stroke="#FABD00" stroke-width="2" stroke-linecap="round"/>
<path d="M314.909 130.674C314.909 135.301 311.158 133.816 306.531 133.816C301.904 133.816 298.153 135.301 298.153 130.674C298.153 126.047 301.904 125.962 306.531 125.962C311.158 125.962 314.909 126.047 314.909 130.674Z" fill="#2A2A2A"/>
<path d="M285.063 114.16C285.063 117.052 281.672 119.396 278.78 119.396C275.888 119.396 270.926 117.052 270.926 114.16C270.926 111.268 275.888 108.924 278.78 108.924C281.672 108.924 285.063 111.268 285.063 114.16Z" fill="white"/>
<path d="M319.098 112.873C319.098 115.765 322.489 118.109 325.381 118.109C328.273 118.109 333.235 115.765 333.235 112.873C333.235 109.981 328.273 107.637 325.381 107.637C322.489 107.637 319.098 109.981 319.098 112.873Z" fill="white"/>
<path d="M321.193 113.92C321.193 115.655 323.202 117.062 324.916 117.062C326.63 117.062 329.57 115.655 329.57 113.92C329.57 112.185 326.63 110.778 324.916 110.778C323.202 110.778 321.193 112.185 321.193 113.92Z" fill="#2A2A2A"/>
<path d="M283.493 114.967C283.493 116.702 281.483 118.108 279.77 118.108C278.056 118.108 275.115 116.702 275.115 114.967C275.115 113.232 278.056 111.825 279.77 111.825C281.483 111.825 283.493 113.232 283.493 114.967Z" fill="#2A2A2A"/>
<path d="M241.228 225.559L237.309 229.478" stroke="#CC5130" stroke-width="3" stroke-linecap="round"/>
<path d="M234.695 280.423C235.143 281.594 237.086 287.717 238.433 287.717C238.783 287.717 238.614 281.277 238.614 280.568C238.614 279.46 237.222 275.293 238.034 276.395C239.01 277.721 240.952 284.392 242.969 281.366C244.855 278.536 244.406 274.88 245.944 272.222C246.273 271.654 248.381 275.796 248.557 276.141C249.963 278.9 250.546 275.442 251.605 280.205C251.775 280.971 253.857 270.062 254.29 273.529C254.345 273.968 255.05 279.614 255.596 279.189C256.806 278.248 257.065 274.335 257.41 272.876C258.227 269.428 260.45 275.621 261.475 277.157" stroke="#CC5130" stroke-width="3" stroke-linecap="round"/>
<path d="M246.235 276.495C245.748 279.042 244.732 283.733 244.162 285.823" stroke="#CC5130" stroke-width="3" stroke-linecap="round"/>
<path d="M245.889 277.532C244.823 279.539 244.016 281.671 243.125 283.751" stroke="#CC5130" stroke-width="3" stroke-linecap="round"/>
<path d="M260.055 280.294C259.953 283.6 259.756 286.908 259.959 290.217C260.057 291.805 260.063 293.432 260.516 294.958C262.852 302.822 260.723 291.794 263.855 295.84" stroke="#CC5130" stroke-width="3" stroke-linecap="round"/>
<path d="M262.126 279.604C262.774 282.019 263.237 284.538 263.451 287.031C263.551 288.209 263.894 290.354 263.355 291.465C262.561 293.099 260.866 294.561 259.9 296.148C258.992 297.637 256.807 299.492 257.213 301.215C257.55 302.649 257.289 301.753 257.289 300.678" stroke="#CC5130" stroke-width="3" stroke-linecap="round"/>
<path d="M262.474 284.786C260.911 290.354 259.364 296.094 259.364 301.906C259.364 305.515 259.364 301.721 259.364 300.333" stroke="#CC5130" stroke-width="3" stroke-linecap="round"/>
<path d="M263.163 296.534C263.163 300.213 263.305 305.339 261.416 308.645C259.874 311.343 259.687 314.614 258.479 317.455C257.865 318.9 257.585 320.702 257.289 322.253C257.181 322.822 256.811 323.17 256.675 323.712C256.416 324.749 256.599 320.229 256.599 319.681" stroke="#CC5130" stroke-width="3" stroke-linecap="round"/>
<path d="M322.677 273.429C322.694 275.077 322.675 276.741 322.831 278.384C322.858 278.676 322.731 279.104 322.985 279.252C323.605 279.614 323.257 277.839 323.321 277.124C323.406 276.159 323.433 275.207 323.433 274.241C323.433 273.393 323.255 272.653 323.937 272.057C325.101 271.038 326.655 277.619 326.708 278.3C326.76 278.962 326.918 279.59 327.324 278.58C328.275 276.214 329.213 273.712 330.571 271.539C330.987 270.874 331.224 274.455 331.243 274.801C331.34 276.577 331.443 278.343 331.495 280.12C331.536 281.51 332.632 277.581 333.203 276.312C333.677 275.259 334.109 274.191 334.574 273.135C334.921 272.349 334.77 274.274 334.77 274.353C334.77 276.911 334.753 278.288 334.77 280.624C334.774 281.11 334.513 283.774 335.554 283.535C337.099 283.18 337.675 282.152 338.186 284.151C338.319 284.671 339.279 288.597 339.851 287.846C341.701 285.419 343.191 282.632 344.68 279.98C345.45 278.61 346.079 276.459 346.108 279.112C346.127 280.77 346.242 282.507 345.996 284.151C345.826 285.286 345.197 285.998 344.89 287.02C344.627 287.897 344.848 289.143 344.848 290.058C344.848 293.188 345.462 283.741 344.876 280.666C344.702 279.748 344.848 280.556 344.848 281.141C344.848 283.693 344.291 285.773 343.533 288.182C342.842 290.376 342.326 292.587 341.769 294.817C340.896 298.308 339.606 301.755 338.984 305.301C338.461 308.276 338.802 311.491 338.802 314.497" stroke="#CC5130" stroke-width="3" stroke-linecap="round"/>
<path d="M337.793 278.47V287.036" stroke="#CC5130" stroke-width="3" stroke-linecap="round"/>
<path d="M234.223 473.595C235.916 475.489 237.528 476.923 238.496 479.272C239.103 480.748 239.821 482.161 240.613 483.546C241.759 485.552 242.321 487.831 243.125 489.975" stroke="#2A2A2A" stroke-linecap="round"/>
<path d="M240.276 470.39C241.729 472.407 243.419 473.646 244.114 476.166C244.511 477.604 244.451 478.617 245.618 479.846C246.934 481.232 248.283 482.419 249.535 483.921" stroke="#2A2A2A" stroke-linecap="round"/>
<path d="M246.329 467.185C247.865 469.489 249.902 470.968 251.117 473.396C251.779 474.722 252.467 475.459 253.451 476.443" stroke="#2A2A2A" stroke-linecap="round"/>
<path d="M318.261 468.254C320.086 470.438 321.607 472.683 322.89 475.178C323.684 476.722 325.386 477.529 325.739 479.293" stroke="#2A2A2A" stroke-linecap="round"/>
<path d="M326.45 465.049C327.835 466.741 329.289 468.262 330.644 470.034C331.372 470.987 332.494 473.236 333.572 473.595" stroke="#2A2A2A" stroke-linecap="round"/>
<path d="M331.436 459.352C333.619 461.96 336.178 462.467 338.914 464.139C340.421 465.06 340.492 465.814 341.406 467.186" stroke="#2A2A2A" stroke-linecap="round"/>
<path d="M276.323 558.037L294.391 562.659" stroke="#2A2A2A" stroke-linecap="round"/>
<path d="M285.147 555.097C290.382 555.712 295.838 557.217 300.694 559.299" stroke="#2A2A2A" stroke-linecap="round"/>
<path d="M292.07 550.713C294.546 550.778 298.012 550.453 299.305 553.038" stroke="#2A2A2A" stroke-linecap="round"/>
<path d="M386.376 552.264C386.896 553.822 389.957 554.411 391.242 554.977C392.926 555.718 394.879 556.378 396.452 557.345C397.554 558.022 399.205 559.15 400.07 560.015" stroke="#2A2A2A" stroke-linecap="round"/>
<path d="M393.867 548.39C397.498 550.178 400.788 551.855 404.116 554.074C405.983 555.319 407.961 555.868 410.144 556.141" stroke="#2A2A2A" stroke-linecap="round"/>
<path d="M401.877 545.287C407.169 547.106 412.139 550.266 417.638 551.488" stroke="#2A2A2A" stroke-linecap="round"/>
<path d="M277.971 142.775C259.593 136.34 241.505 131.456 222.089 129.344C213.733 128.436 205.374 128.385 196.986 128.385C195.529 128.385 190.607 129.161 189.472 128.025" stroke="#2A2A2A" stroke-linecap="round"/>
<path d="M265.019 147.093C257.409 146.465 250.02 144.126 242.395 143.695C231.044 143.055 219.583 143.496 208.218 143.496C202.441 143.496 196.67 143.855 190.91 143.855" stroke="#2A2A2A" stroke-linecap="round"/>
<path d="M268.617 151.769C256.568 151.769 245.115 153.27 233.321 155.726C223.906 157.686 214.924 160.088 206.38 164.36" stroke="#2A2A2A" stroke-linecap="round"/>
<path d="M324.356 137.978L408.201 125.699" stroke="#2A2A2A" stroke-linecap="round"/>
<path d="M326.812 142.188C349.808 144.327 373.03 141.219 395.571 136.926" stroke="#2A2A2A" stroke-linecap="round"/>
<path d="M330.318 148.503C348.875 153.716 369.065 153.414 388.203 153.414" stroke="#2A2A2A" stroke-linecap="round"/>
<path d="M223.606 475.917C211.519 469.016 240.873 329.256 235.693 286.12C242.024 280.368 255.723 269.901 259.867 274.042C265.047 279.218 256.413 393.097 254.687 405.175C252.96 417.253 244.326 455.212 249.506 462.114C254.687 469.016 252.96 475.917 244.326 481.094C235.693 486.27 235.693 482.819 223.606 475.917Z" fill="#CC5130"/>
<path d="M308.431 467.538C296.344 460.636 326.897 319.896 321.717 276.76C328.048 271.008 340.088 281.521 344.232 285.662C349.412 290.838 336.902 371.533 334.332 390.383C331.503 411.13 329.152 446.833 334.332 453.734C339.512 460.636 337.785 467.538 329.152 472.714C320.518 477.891 320.518 474.44 308.431 467.538Z" fill="#CC5130"/>
<path d="M209.049 272.049C202.257 266.604 197.15 260.356 193.724 257.912C159.69 310.796 162.576 398.587 165.704 435.938C168.683 433.494 175.088 424.209 176.875 406.616C179.11 384.625 199.665 393.526 213.964 371.534C228.264 349.543 217.539 278.856 209.049 272.049Z" fill="#CC5130"/>
<path d="M339.285 199.268C344.312 190.472 349.059 192.112 350.804 194.032C354.155 198.64 361.975 234.699 365.465 252.153C364.942 252.851 362.324 254.142 356.04 253.723C348.186 253.2 324.624 225.972 323.577 219.689C322.53 213.406 333.002 210.264 339.285 199.268Z" fill="#CC5130"/>
<path d="M213.097 533.328C205.243 533.851 204.196 537.517 201.578 549.56C204.894 553.923 212.993 561.812 218.857 560.555C227.758 557.414 245.91 557.937 254.462 558.984C254.811 557.763 254.462 554.9 250.273 553.225C245.037 551.13 240.849 555.843 237.707 546.942C234.565 538.04 220.952 532.804 213.097 533.328Z" fill="#CC5130"/>
<path d="M105.758 253.2C86.9079 243.565 69.1053 256.34 65.44 266.289L54.4443 307.13C56.7133 309.05 62.7173 314.461 66.4873 320.744C71.1997 328.599 68.0581 339.071 71.7233 356.873C74.6555 371.115 93.8893 369.44 103.14 366.822L123.037 315.508C124.084 312.715 125.759 304.932 124.084 300.324C121.989 294.564 129.32 265.242 105.758 253.2Z" fill="#CC5130"/>
<path d="M329.337 68.7071C328.5 71.2204 323.752 81.6227 321.483 86.5096C321.483 88.0804 327.767 89.6513 329.337 89.6513C330.594 89.6513 331.257 75.6885 331.432 68.7071C331.083 67.6599 330.175 66.1938 329.337 68.7071Z" fill="#2A2A2A"/>
<path d="M265.073 63.8991C265.081 66.5484 263.903 77.9219 263.313 83.2775C263.814 84.7661 269.296 84.3827 271.759 83.7475C273.581 83.2775 268.314 66.9724 266.25 60.3006C265.585 59.4196 265.064 61.2499 265.073 63.8991Z" fill="#2A2A2A"/>
<path d="M449.414 537.436C438.792 530.041 433.272 509.752 432.18 505.35C432.058 504.858 432.337 504.373 432.816 504.206L470.395 491.053C470.609 490.978 470.842 490.978 471.056 491.053L508.722 504.236C509.162 504.39 509.438 504.814 509.375 505.277C508.8 509.484 505.587 529.636 495.913 537.436C481.777 548.835 464.316 547.812 449.414 537.436Z" fill="#254226"/>
<path d="M510.5 502.562C510.5 504.216 509.495 505.871 507.493 507.449C505.497 509.022 502.578 510.46 498.925 511.678C491.626 514.111 481.51 515.624 470.314 515.624C459.117 515.624 449.001 514.111 441.702 511.678C438.05 510.46 435.13 509.022 433.134 507.449C431.132 505.871 430.127 504.216 430.127 502.562C430.127 500.909 431.132 499.254 433.134 497.676C435.13 496.103 438.05 494.664 441.702 493.447C449.001 491.013 459.117 489.5 470.314 489.5C481.51 489.5 491.626 491.013 498.925 493.447C502.578 494.664 505.497 496.103 507.493 497.676C509.495 499.254 510.5 500.909 510.5 502.562Z" fill="url(#paint0_linear_432_3634)" stroke="#143516"/>
<defs>
<linearGradient id="paint0_linear_432_3634" x1="470.314" y1="489" x2="469.809" y2="548.141" gradientUnits="userSpaceOnUse">
<stop offset="0.0315771" stop-color="white"/>
<stop offset="1" stop-color="#793523"/>
</linearGradient>
</defs>
</svg>
