<svg width="285" height="310" viewBox="0 0 285 310" fill="none" xmlns="http://www.w3.org/2000/svg">
<path d="M268.273 16.5127C268.273 60.5127 271.273 106.013 224.273 152.013C158.804 216.089 116.961 193.104 94.4607 177.104C65.2739 152.513 77.2739 111.013 103.774 98.0129C170.274 65.3903 196.201 189.513 164.274 221.013C153.632 231.513 113.273 277.513 19.2734 263.513" stroke="#343440" stroke-width="8"/>
<path d="M31.0364 290.438C30.9162 290.03 30.7643 289.652 30.6128 289.244C30.7036 289.495 30.8257 289.747 30.9166 289.998C29.8217 287.388 28.1603 285.052 26.5611 282.749C24.9008 280.319 23.2089 277.921 21.4857 275.522C20.5009 274.165 19.4847 272.807 18.4686 271.449C18.6224 271.67 18.7765 271.86 18.9616 272.081C17.7917 270.502 16.5271 268.985 15.3889 267.376C13.9732 265.419 13.7869 262.725 15.2193 260.709C16.2378 259.282 17.6284 258.141 18.864 256.873C20.0043 255.729 21.1136 254.554 22.1608 253.346C23.3663 251.984 24.5409 250.59 25.6529 249.195C25.4938 249.412 25.3351 249.598 25.1448 249.815C28.1951 245.972 30.9039 241.906 33.3025 237.617C33.9742 236.405 34.6464 235.161 35.2876 233.886C35.6088 233.201 36.4603 232.649 37.1821 232.47C37.9356 232.26 38.9356 232.366 39.5873 232.812C40.239 233.258 40.8258 233.891 41.0037 234.706C41.1812 235.553 41.0466 236.334 40.6617 237.111C36.6221 245.135 31.4322 252.551 25.3452 259.11C24.5208 260.008 23.6655 260.874 22.8102 261.739C21.9553 262.574 21.0069 263.376 20.2447 264.305C20.4038 264.088 20.5624 263.903 20.7528 263.686C20.5621 263.934 20.4026 264.182 20.2424 264.493C20.3393 264.244 20.4675 263.995 20.5644 263.746C20.4679 263.964 20.4026 264.182 20.3687 264.401C20.4034 264.12 20.4381 263.838 20.5041 263.558C20.4705 263.745 20.4679 263.964 20.4969 264.152C20.469 263.87 20.4411 263.588 20.3819 263.306C20.4106 263.525 20.4709 263.714 20.5312 263.902C20.4403 263.651 20.3182 263.399 20.2274 263.147C20.4098 263.588 20.6556 263.966 20.9326 264.345C20.7788 264.124 20.6246 263.935 20.4396 263.713C25.1516 269.934 29.8954 276.124 34.1028 282.684C35.3314 284.576 36.3713 286.56 37.0647 288.727C37.3059 289.481 37.1061 290.48 36.7227 291.132C36.3394 291.785 35.5809 292.401 34.8282 292.549C33.1328 293.029 31.5795 292.103 31.0364 290.438Z" fill="#343440"/>
</svg>
