<svg width="53" height="54" viewBox="0 0 53 54" fill="none" xmlns="http://www.w3.org/2000/svg">
<path d="M25.0361 13.3948V9.91667H20.6443C20.2561 9.91667 19.8837 9.73668 19.6092 9.41631C19.3346 9.09593 19.1804 8.66141 19.1804 8.20833C19.1804 7.75526 19.3346 7.32073 19.6092 7.00036C19.8837 6.67998 20.2561 6.5 20.6443 6.5H32.3557C32.7439 6.5 33.1163 6.67998 33.3908 7.00036C33.6654 7.32073 33.8196 7.75526 33.8196 8.20833C33.8196 8.66141 33.6654 9.09593 33.3908 9.41631C33.1163 9.73668 32.7439 9.91667 32.3557 9.91667H27.9639V13.3948C30.7725 13.6287 33.5097 14.5355 36.0048 16.0585C38.4998 17.5816 40.6991 19.6882 42.4655 22.2471C44.232 24.806 45.5276 27.7622 46.2716 30.9313C47.0156 34.1004 47.1921 37.4145 46.7899 40.6667H6.21011C5.80795 37.4145 5.98438 34.1004 6.7284 30.9313C7.47241 27.7622 8.76804 24.806 10.5345 22.2471C12.3009 19.6882 14.5002 17.5816 16.9952 16.0585C19.4903 14.5355 22.2275 13.6287 25.0361 13.3948ZM8.93299 37.25H44.067C44.067 34.5579 43.6126 31.8922 42.7298 29.405C41.847 26.9178 40.553 24.6579 38.9217 22.7543C37.2905 20.8507 35.3539 19.3407 33.2226 18.3105C31.0913 17.2802 28.8069 16.75 26.5 16.75C24.1931 16.75 21.9087 17.2802 19.7774 18.3105C17.6461 19.3407 15.7095 20.8507 14.0782 22.7543C12.447 24.6579 11.153 26.9178 10.2702 29.405C9.38738 31.8922 8.93299 34.5579 8.93299 37.25ZM7.46907 44.0833H45.5309C45.9192 44.0833 46.2915 44.2633 46.5661 44.5837C46.8406 44.9041 46.9948 45.3386 46.9948 45.7917C46.9948 46.2447 46.8406 46.6793 46.5661 46.9996C46.2915 47.32 45.9192 47.5 45.5309 47.5H7.46907C7.08082 47.5 6.70847 47.32 6.43393 46.9996C6.15939 46.6793 6.00516 46.2447 6.00516 45.7917C6.00516 45.3386 6.15939 44.9041 6.43393 44.5837C6.70847 44.2633 7.08082 44.0833 7.46907 44.0833Z" fill="#F45B49"/>
</svg>
