<svg width="422" height="350" viewBox="0 0 422 350" fill="none" xmlns="http://www.w3.org/2000/svg">
<g clip-path="url(#clip0_622_230)">
<path d="M0 0H422V350H0V0Z" fill="#FFA6B8"/>
<path d="M-87.7367 114.865C-56.4472 110.347 9.62579 118.987 23.6018 189.689C41.0718 278.067 37.1909 319.781 100.5 347C163.809 374.219 190.773 405.018 195.565 430.986" stroke="#A61C1C" stroke-opacity="0.37"/>
<path d="M154.163 -53.0795C182.723 -66.6584 244.539 -94.4491 276.527 -25.8141C316.51 59.9797 302.672 99.1136 370.073 108.989C437.474 118.865 495.739 165.417 507.163 190.723" stroke="#A61C1C" stroke-opacity="0.37"/>
<path d="M140.156 -76.9022C170.02 -92.5557 250.329 -50.1055 266.674 25.0224C285.349 110.854 309.551 145.912 382.88 150.822C456.208 155.732 511.219 182.318 525.254 206.743" stroke="#F59500"/>
<path d="M287 70.5455C287 103 268.871 110 246.507 110C224.144 110 199 95.5174 199 73.7273C199 51.9371 224.144 40 246.507 40C268.871 40 287 48.7553 287 70.5455Z" fill="#F75D5F" style="mix-blend-mode:multiply"/>
<path d="M121.185 292.579C118.246 289.883 108.94 237.529 104.654 211.69C100.352 185.748 130.525 182.452 144.238 192.542C146.678 193.678 148.887 195.063 150.729 196.672C154.979 174.051 192.997 179.751 196.034 200.999C199.973 182.429 236.998 172.977 244.875 201.001C273.234 177.703 283.741 202.702 287.414 211.69C281.904 235.282 265.55 284.49 262.611 292.579C258.938 302.69 250.227 307.616 244.875 308.925C233.159 311.789 230.826 308.925 225.181 308.925H185.793H156.082C126.695 308.925 124.858 295.95 121.185 292.579Z" fill="#FA7B00" style="mix-blend-mode:darken"/>
<path d="M113.683 207.797C117.968 233.637 127.274 285.99 130.213 288.687C133.886 292.057 135.723 302.168 165.111 302.168M113.683 207.797C126.907 186.227 146.131 194.315 154.09 201.056M113.683 207.797C102.05 204.988 83.1933 191.282 100.826 158.926C96.5398 143.759 96.417 113.088 130.213 111.74C133.274 94.8882 151.886 65.5657 201.845 83.0918C218.988 81.4065 254.008 84.7767 256.947 111.74C273.477 113.425 305.069 125.222 299.191 158.926C308.374 170.161 319.761 195.663 291.843 207.797M165.111 302.168C176.044 302.168 189.267 302.168 201.845 302.168M165.111 302.168L154.09 201.056M291.843 207.797C286.333 231.39 274.578 280.598 271.64 288.687C267.966 298.798 251.436 302.168 245.926 302.168C244.532 302.168 240.551 302.168 234.905 302.168M291.843 207.797C288.17 198.809 274.946 184.878 251.436 201.056M251.436 201.056L234.905 302.168M251.436 201.056C223.251 178.138 206.631 191.507 201.845 201.056M234.905 302.168C226.54 302.168 214.519 302.168 201.845 302.168M201.845 302.168V201.056M201.845 201.056C193.886 190.945 173.192 176.788 154.09 201.056" stroke="#343440"/>
<path d="M195.544 82.6491C194.283 75.4097 195.22 67.9907 198.254 61.2048C201.288 54.4184 206.304 48.5243 212.758 44.1735C219.212 39.8225 226.851 37.1848 234.838 36.5538C242.824 35.9228 250.845 37.3233 258.017 40.5994C265.189 43.8755 271.233 48.8986 275.49 55.1125C279.746 61.3259 282.051 68.4908 282.157 75.8208C282.263 83.1508 280.167 90.369 276.092 96.6834C272.018 102.998 266.122 108.167 259.048 111.616" stroke="#343440"/>
<rect x="-0.736816" y="-0.00591657" width="7.47422" height="16.6136" transform="matrix(-0.742245 0.670129 -0.731388 -0.681962 230.749 115.809)" stroke="#733E52"/>
<rect x="0.561046" y="-0.441912" width="7.10708" height="17.347" transform="matrix(0.127937 -0.991782 0.994155 0.107959 232.161 155.332)" stroke="#FF0000"/>
<rect x="0.588646" y="0.410309" width="7.80306" height="15.9005" transform="matrix(0.986939 -0.161097 0.190353 0.981716 110.579 131.044)" stroke="#733E52"/>
<rect x="-0.294045" y="0.621534" width="7.18197" height="17.2024" transform="matrix(0.362316 0.932055 -0.950406 0.311013 149.754 120.868)" stroke="#FF00B8"/>
<rect x="0.278082" y="0.627556" width="7.73401" height="16.055" transform="matrix(0.942948 0.332941 -0.386784 0.92217 153.601 133.605)" stroke="#BE0E8D"/>
<rect x="-0.213537" y="0.647978" width="7.24882" height="17.0712" transform="matrix(0.480843 0.876807 -0.907917 0.419149 204.939 136.127)" stroke="#FE5607"/>
<rect x="-0.611713" y="0.38051" width="7.13541" height="17.2926" transform="matrix(-0.245383 0.969426 -0.978042 -0.208406 188.524 123.214)" stroke="#FF00B8"/>
<rect x="-0.547229" y="-0.456349" width="7.81886" height="15.8648" transform="matrix(-0.996591 0.0825023 -0.097867 -0.995199 200.127 115.86)" stroke="#019389"/>
<rect x="-0.0931246" y="-0.67083" width="7.56717" height="16.4177" transform="matrix(-0.821877 -0.569664 0.635628 -0.771995 227.511 140.621)" stroke="#019389"/>
<rect x="0.321809" y="-0.610077" width="7.16237" height="17.2405" transform="matrix(-0.318604 -0.947888 0.962222 -0.272266 256.884 135.77)" stroke="#733E52"/>
<rect x="0.505891" y="0.494984" width="7.82441" height="15.8522" transform="matrix(0.99995 -0.00996113 0.0118325 0.99993 276.76 140.394)" stroke="#FF00B8"/>
<rect x="-0.225279" y="-0.644713" width="7.69238" height="16.1469" transform="matrix(-0.914868 -0.403753 0.46431 -0.885673 163.012 110.407)" stroke="#019389"/>
<circle cx="254.327" cy="61.1149" r="2.65103" stroke="#343440"/>
<circle cx="240.147" cy="80.0202" r="2.65103" stroke="#343440"/>
<circle cx="266.93" cy="95.776" r="2.65103" stroke="#343440"/>
<circle cx="210.213" cy="64.2653" r="2.65103" stroke="#343440"/>
<circle cx="83.3834" cy="22.5143" r="5.01429" stroke="#FF00B8"/>
<circle cx="400.061" cy="41.4202" r="3.43878" stroke="#A61C1C"/>
<circle cx="26.6653" cy="109.168" r="8.16532" stroke="#FA7B00"/>
<circle cx="379.58" cy="301.38" r="8.16532" stroke="#F73D45"/>
<path d="M85.2689 162.397C69.9358 168.071 74.8467 201.833 91.4813 202.415C110.029 226.6 153.596 210.287 183.17 211.324C221.759 206.034 257.342 220.883 270.968 214.401C317.923 205.417 302.436 180.745 288.823 169.531C305.883 128.419 262.359 107.808 244.889 119.72C251.979 84.6277 218.549 65.521 193.617 84.5171C158.116 63.0146 128.739 84.3953 139.125 111.552C85.1461 97.116 79.3368 148.567 85.2689 162.397Z" fill="#FFC100" style="mix-blend-mode:overlay"/>
</g>
<defs>
<clipPath id="clip0_622_230">
<rect width="422" height="350" fill="white"/>
</clipPath>
</defs>
</svg>
