<svg width="422" height="350" viewBox="0 0 422 350" fill="none" xmlns="http://www.w3.org/2000/svg">
<g clip-path="url(#clip0_622_1597)">
<path d="M0 0H422V350H0V0Z" fill="#019389"/>
<path d="M154.163 -53.0795C182.723 -66.6584 244.539 -94.4491 276.527 -25.8141C316.51 59.9797 302.672 99.1136 370.073 108.989C437.474 118.865 495.739 165.417 507.163 190.723" stroke="#00FFE0"/>
<path d="M140.156 -76.9022C170.02 -92.5557 250.329 -50.1055 266.674 25.0224C285.349 110.854 309.551 145.912 382.88 150.822C456.208 155.732 511.219 182.318 525.254 206.743" stroke="#62BDFF"/>
<path d="M288 72.4182C288 105.8 269.665 113 247.047 113C224.429 113 199 98.1036 199 75.6909C199 53.2782 224.429 41 247.047 41C269.665 41 288 50.0055 288 72.4182Z" fill="#F7CC5D" style="mix-blend-mode:color-dodge"/>
<path d="M85.4428 161.774C70.07 167.462 74.9936 201.312 91.6713 201.895C110.267 226.143 153.947 209.788 183.598 210.827C222.287 205.523 257.962 220.411 271.623 213.912C318.7 204.905 303.172 180.169 289.524 168.926C306.628 127.707 262.992 107.043 245.477 118.986C252.585 83.8026 219.068 64.6464 194.071 83.6918C158.479 62.1335 129.025 83.5696 139.439 110.797C85.3197 96.3233 79.4953 147.907 85.4428 161.774Z" fill="#98C0FF" style="mix-blend-mode:lighten"/>
<path d="M-87.7367 114.865C-56.4472 110.347 9.62579 118.987 23.6018 189.689C41.0718 278.067 23.8053 309.918 87.1144 337.137C150.424 364.356 190.773 405.018 195.565 430.986" stroke="#62BDFF"/>
<path d="M121.451 292.293C118.505 289.59 109.175 237.101 104.878 211.194C100.564 185.185 130.816 181.881 144.564 191.997C147.011 193.135 149.225 194.524 151.072 196.137C155.333 173.458 193.449 179.172 196.495 200.475C200.444 181.857 237.564 172.38 245.462 200.478C273.895 177.119 284.428 202.183 288.111 211.194C282.587 234.848 266.19 284.183 263.244 292.293C259.561 302.43 250.828 307.369 245.462 308.681C233.715 311.552 231.377 308.681 225.717 308.681H186.227H156.439C126.976 308.681 125.134 295.672 121.451 292.293Z" fill="#FFA9EC" style="mix-blend-mode:lighten"/>
<path d="M196.004 81.8193C194.739 74.5609 195.678 67.1223 198.72 60.3186C201.763 53.5144 206.792 47.6048 213.262 43.2426C219.733 38.8803 227.392 36.2357 235.4 35.603C243.408 34.9704 251.449 36.3746 258.64 39.6593C265.831 42.9439 271.891 47.9802 276.159 54.2104C280.426 60.44 282.737 67.6237 282.844 74.973C282.95 82.3223 280.848 89.5594 276.763 95.8904C272.678 102.222 266.766 107.404 259.673 110.862" stroke="#343440"/>
<rect x="-0.736816" y="-0.00591657" width="7.49617" height="16.6593" transform="matrix(-0.742245 0.670129 -0.731388 -0.681962 231.304 115.064)" stroke="#733E52"/>
<rect x="0.561046" y="-0.441912" width="7.12808" height="17.3945" transform="matrix(0.127937 -0.991782 0.994155 0.107959 232.714 154.69)" stroke="#FF0000"/>
<rect x="0.588646" y="0.410309" width="7.82586" height="15.9443" transform="matrix(0.986939 -0.161097 0.190353 0.981716 110.818 130.34)" stroke="#733E52"/>
<rect x="-0.294045" y="0.621534" width="7.20316" height="17.2496" transform="matrix(0.362316 0.932055 -0.950406 0.311013 150.095 120.136)" stroke="#FF00B8"/>
<rect x="0.278082" y="0.627556" width="7.75664" height="16.0992" transform="matrix(0.942948 0.332941 -0.386784 0.92217 153.952 132.907)" stroke="#BE0E8D"/>
<rect x="-0.213537" y="0.647978" width="7.27019" height="17.1181" transform="matrix(0.480843 0.876807 -0.907917 0.419149 205.422 135.434)" stroke="#FE5607"/>
<rect x="-0.611713" y="0.38051" width="7.15649" height="17.34" transform="matrix(-0.245383 0.969426 -0.978042 -0.208406 188.968 122.486)" stroke="#FF00B8"/>
<rect x="-0.547229" y="-0.456349" width="7.84171" height="15.9085" transform="matrix(-0.996591 0.0825023 -0.097867 -0.995199 200.602 115.119)" stroke="#019389"/>
<rect x="-0.0931246" y="-0.67083" width="7.58937" height="16.4629" transform="matrix(-0.821877 -0.569664 0.635628 -0.771995 228.053 139.944)" stroke="#019389"/>
<rect x="0.321809" y="-0.610077" width="7.18352" height="17.2877" transform="matrix(-0.318604 -0.947888 0.962222 -0.272266 257.501 135.08)" stroke="#733E52"/>
<rect x="0.505891" y="0.494984" width="7.84727" height="15.8959" transform="matrix(0.99995 -0.00996113 0.0118325 0.99993 277.43 139.713)" stroke="#FF00B8"/>
<rect x="-0.225279" y="-0.644713" width="7.7149" height="16.1913" transform="matrix(-0.914868 -0.403753 0.46431 -0.885673 163.387 109.652)" stroke="#019389"/>
<circle cx="254.939" cy="60.2285" r="2.65919" stroke="#343440"/>
<circle cx="240.723" cy="79.1836" r="2.65919" stroke="#343440"/>
<circle cx="267.575" cy="94.9805" r="2.65919" stroke="#343440"/>
<circle cx="210.711" cy="63.3877" r="2.65919" stroke="#343440"/>
<circle cx="83.553" cy="21.5286" r="5.02858" stroke="#FAFF00"/>
<circle cx="401.051" cy="40.4832" r="3.44899" stroke="#AAFF86"/>
<circle cx="26.6878" cy="108.407" r="8.18777" stroke="#00FFE0"/>
<circle cx="380.517" cy="301.117" r="8.18777" stroke="#FFB1E9"/>
<path d="M113.931 207.291C118.228 233.198 127.558 285.687 130.504 288.39C134.187 291.77 136.029 301.907 165.492 301.907M113.931 207.291C127.19 185.665 146.464 193.775 154.443 200.533M113.931 207.291C102.268 204.475 83.3626 190.733 101.041 158.294C96.7437 143.087 96.6205 112.337 130.504 110.986C133.573 94.09 152.233 64.6915 202.321 82.263C219.509 80.5733 254.62 83.9522 257.566 110.986C274.14 112.675 305.813 124.502 299.92 158.294C309.127 169.557 320.543 195.126 292.553 207.291M165.492 301.907C176.454 301.907 189.711 301.907 202.321 301.907M165.492 301.907L154.443 200.533M292.553 207.291C287.029 230.945 275.243 280.281 272.297 288.39C268.614 298.528 252.041 301.907 246.517 301.907C245.119 301.907 241.128 301.907 235.468 301.907M292.553 207.291C288.87 198.28 275.612 184.313 252.041 200.533M252.041 200.533L235.468 301.907M252.041 200.533C223.783 177.556 207.12 190.959 202.321 200.533M235.468 301.907C227.081 301.907 215.029 301.907 202.321 301.907M202.321 301.907V200.533M202.321 200.533C194.342 190.395 173.594 176.202 154.443 200.533" stroke="#343440"/>
</g>
<defs>
<clipPath id="clip0_622_1597">
<rect width="422" height="350" fill="white"/>
</clipPath>
</defs>
</svg>
