<svg width="422" height="350" viewBox="0 0 422 350" fill="none" xmlns="http://www.w3.org/2000/svg">
<g clip-path="url(#clip0_622_595)">
<path d="M0 0H422V350H0V0Z" fill="#4682DC"/>
<path d="M154.163 -53.0795C182.723 -66.6584 244.539 -94.4491 276.527 -25.8141C316.51 59.9797 302.672 99.1136 370.073 108.989C437.474 118.865 495.739 165.417 507.163 190.723" stroke="#00FFE0"/>
<path d="M140.156 -76.9022C170.02 -92.5557 250.329 -50.1055 266.674 25.0224C285.349 110.854 309.551 145.912 382.88 150.822C456.208 155.732 511.219 182.318 525.254 206.743" stroke="#62BDFF"/>
<path d="M292 75.2909C292 109.6 273.253 117 250.127 117C227.001 117 201 101.69 201 78.6545C201 55.6193 227.001 43 250.127 43C273.253 43 292 52.2556 292 75.2909Z" fill="#FF9B00" style="mix-blend-mode:hard-light"/>
<path d="M84.6631 166.409C69.0122 172.201 74.0249 206.662 91.0043 207.256C109.936 231.943 154.407 215.292 184.593 216.35C223.982 210.95 260.303 226.107 274.21 219.491C322.139 210.321 306.331 185.137 292.435 173.691C309.849 131.727 265.423 110.689 247.591 122.847C254.828 87.0281 220.705 67.5254 195.256 86.9153C159.02 64.9671 129.034 86.7909 139.636 114.511C84.5377 99.7752 78.608 152.292 84.6631 166.409Z" fill="#FFD85E" style="mix-blend-mode:lighten"/>
<path d="M118.649 292.151C115.725 289.468 106.467 237.386 102.204 211.68C97.9237 185.873 127.941 182.594 141.583 192.632C144.01 193.761 146.207 195.139 148.04 196.74C152.267 174.236 190.088 179.907 193.11 201.045C197.029 182.571 233.861 173.168 241.698 201.047C269.91 177.87 280.362 202.739 284.017 211.68C278.535 235.151 262.266 284.104 259.342 292.151C255.688 302.21 247.023 307.11 241.698 308.412C230.042 311.261 227.722 308.412 222.106 308.412H182.923H153.365C124.13 308.412 122.303 295.504 118.649 292.151Z" fill="#FA7B00" style="mix-blend-mode:lighten"/>
<path d="M192.627 83.3068C191.373 76.1055 192.304 68.7254 195.323 61.9752C198.341 55.2244 203.331 49.3612 209.751 45.0332C216.171 40.705 223.77 38.0811 231.715 37.4534C239.66 36.8257 247.638 38.2189 254.773 41.4779C261.908 44.7367 267.92 49.7336 272.154 55.9148C276.388 62.0956 278.681 69.2229 278.786 76.5144C278.892 83.8059 276.806 90.9862 272.753 97.2674C268.7 103.549 262.835 108.691 255.798 112.122" stroke="#343440"/>
<rect x="-0.736816" y="-0.00591657" width="7.43031" height="16.5224" transform="matrix(-0.742245 0.670129 -0.731388 -0.681962 227.641 116.3)" stroke="#733E52"/>
<rect x="0.561046" y="-0.441912" width="7.06507" height="17.2519" transform="matrix(0.127937 -0.991782 0.994155 0.107959 229.057 155.616)" stroke="#FF0000"/>
<rect x="0.588646" y="0.410309" width="7.75744" height="15.8129" transform="matrix(0.986939 -0.161097 0.190353 0.981716 108.098 131.454)" stroke="#733E52"/>
<rect x="-0.294045" y="0.621534" width="7.13957" height="17.1081" transform="matrix(0.362316 0.932055 -0.950406 0.311013 147.074 121.334)" stroke="#FF00B8"/>
<rect x="0.278082" y="0.627556" width="7.68875" height="15.9666" transform="matrix(0.942948 0.332941 -0.386784 0.92217 150.899 134)" stroke="#BE0E8D"/>
<rect x="-0.213537" y="0.647978" width="7.20607" height="16.9776" transform="matrix(0.480843 0.876807 -0.907917 0.419149 201.974 136.513)" stroke="#FE5607"/>
<rect x="-0.611713" y="0.38051" width="7.09326" height="17.1978" transform="matrix(-0.245383 0.969426 -0.978042 -0.208406 185.639 123.668)" stroke="#FF00B8"/>
<rect x="-0.547229" y="-0.456349" width="7.77316" height="15.7774" transform="matrix(-0.996591 0.0825023 -0.097867 -0.995199 197.176 116.344)" stroke="#019389"/>
<rect x="-0.0931246" y="-0.67083" width="7.52278" height="16.3275" transform="matrix(-0.821877 -0.569664 0.635628 -0.771995 224.426 140.974)" stroke="#019389"/>
<rect x="0.321809" y="-0.610077" width="7.12007" height="17.146" transform="matrix(-0.318604 -0.947888 0.962222 -0.272266 253.652 136.152)" stroke="#733E52"/>
<rect x="0.505891" y="0.494984" width="7.77869" height="15.7649" transform="matrix(0.99995 -0.00996113 0.0118325 0.99993 273.419 140.754)" stroke="#FF00B8"/>
<rect x="-0.225279" y="-0.644713" width="7.64734" height="16.058" transform="matrix(-0.914868 -0.403753 0.46431 -0.885673 160.26 110.916)" stroke="#019389"/>
<circle cx="251.102" cy="61.8857" r="2.6347" stroke="#343440"/>
<circle cx="236.997" cy="80.6943" r="2.6347" stroke="#343440"/>
<circle cx="263.641" cy="96.3681" r="2.6347" stroke="#343440"/>
<circle cx="207.217" cy="65.0204" r="2.6347" stroke="#343440"/>
<circle cx="81.0453" cy="23.4857" r="4.98572" stroke="#FAFF00"/>
<circle cx="396.081" cy="42.2934" r="3.41837" stroke="#AAFF86"/>
<circle cx="24.6204" cy="109.692" r="8.12042" stroke="#00FFE0"/>
<circle cx="375.707" cy="300.906" r="8.12042" stroke="#FFB1E9"/>
<path d="M111.187 207.808C115.451 233.514 124.708 285.596 127.632 288.279C131.286 291.632 133.113 301.691 162.348 301.691M111.187 207.808C124.343 186.35 143.468 194.397 151.385 201.102M111.187 207.808C99.615 205.014 80.8558 191.379 98.3968 159.19C94.1331 144.102 94.0109 113.591 127.632 112.249C130.677 95.4847 149.192 66.3141 198.892 83.7494C215.946 82.0728 250.785 85.4255 253.709 112.249C270.154 113.926 301.582 125.661 295.734 159.19C304.87 170.367 316.197 195.738 288.425 207.808M162.348 301.691C173.226 301.691 186.38 301.691 198.892 301.691M162.348 301.691L151.385 201.102M288.425 207.808C282.943 231.279 271.249 280.232 268.326 288.279C264.671 298.338 248.226 301.691 242.745 301.691C241.358 301.691 237.398 301.691 231.782 301.691M288.425 207.808C284.77 198.867 271.614 185.008 248.226 201.102M248.226 201.102L231.782 301.691M248.226 201.102C220.187 178.304 203.654 191.603 198.892 201.102M231.782 301.691C223.46 301.691 211.501 301.691 198.892 301.691M198.892 301.691V201.102M198.892 201.102C190.974 191.043 170.388 176.96 151.385 201.102" stroke="#343440"/>
<path d="M-87.7367 114.865C-56.4472 110.347 9.62579 118.987 23.6018 189.689C41.0718 278.067 23.8053 309.918 87.1144 337.137C150.424 364.356 190.773 405.018 195.565 430.986" stroke="#62BDFF"/>
</g>
<defs>
<clipPath id="clip0_622_595">
<rect width="422" height="350" fill="white"/>
</clipPath>
</defs>
</svg>
