<svg width="60" height="60" viewBox="0 0 60 60" fill="none" xmlns="http://www.w3.org/2000/svg">
<path d="M34.5 30C34.5 29.8206 34.4656 29.6466 34.3969 29.478C34.3282 29.3094 34.2366 29.1695 34.1221 29.0583L27.8015 22.87C27.5496 22.6233 27.229 22.5 26.8397 22.5C26.4504 22.5 26.1298 22.6233 25.8779 22.87C25.626 23.1166 25.5 23.4305 25.5 23.8117C25.5 24.1928 25.626 24.5067 25.8779 24.7534L31.2366 30L25.8779 35.2466C25.626 35.4933 25.5 35.8072 25.5 36.1883C25.5 36.5695 25.626 36.8834 25.8779 37.13C26.1298 37.3767 26.4504 37.5 26.8397 37.5C27.229 37.5 27.5496 37.3767 27.8015 37.13L34.1221 30.9417C34.2595 30.8072 34.3571 30.6614 34.4148 30.5045C34.4725 30.3475 34.5009 30.1794 34.5 30Z" fill="#343440"/>
<rect x="0.5" y="59.5" width="59" height="59" transform="rotate(-90 0.5 59.5)" stroke="#343440"/>
</svg>
