<svg width="60" height="60" viewBox="0 0 60 60" fill="none" xmlns="http://www.w3.org/2000/svg">
<path d="M25.5 30C25.5 29.8206 25.5344 29.6466 25.6031 29.478C25.6718 29.3094 25.7634 29.1695 25.8779 29.0583L32.1985 22.87C32.4504 22.6233 32.771 22.5 33.1603 22.5C33.5496 22.5 33.8702 22.6233 34.1221 22.87C34.374 23.1166 34.5 23.4305 34.5 23.8117C34.5 24.1928 34.374 24.5067 34.1221 24.7534L28.7634 30L34.1221 35.2466C34.374 35.4933 34.5 35.8072 34.5 36.1883C34.5 36.5695 34.374 36.8834 34.1221 37.13C33.8702 37.3767 33.5496 37.5 33.1603 37.5C32.771 37.5 32.4504 37.3767 32.1985 37.13L25.8779 30.9417C25.7405 30.8072 25.6429 30.6614 25.5852 30.5045C25.5275 30.3475 25.4991 30.1794 25.5 30Z" fill="#343440"/>
<rect x="-0.5" y="-0.5" width="59" height="59" transform="matrix(4.37114e-08 -1 -1 -4.37114e-08 59 59)" stroke="#343440"/>
</svg>
