<svg width="50" height="50" viewBox="0 0 50 50" fill="none" xmlns="http://www.w3.org/2000/svg">
<path d="M12.5 20C12.0055 20 11.5222 20.1466 11.1111 20.4213C10.7 20.696 10.3795 21.0865 10.1903 21.5433C10.0011 22.0001 9.95157 22.5028 10.048 22.9877C10.1445 23.4727 10.3826 23.9181 10.7322 24.2678C11.0819 24.6174 11.5273 24.8555 12.0123 24.952C12.4972 25.0484 12.9999 24.9989 13.4567 24.8097C13.9135 24.6205 14.304 24.3 14.5787 23.8889C14.8534 23.4778 15 22.9945 15 22.5C15 21.837 14.7366 21.2011 14.2678 20.7322C13.7989 20.2634 13.163 20 12.5 20ZM42.5 10H40V2.5C40 1.83696 39.7366 1.20107 39.2678 0.732233C38.7989 0.263392 38.163 0 37.5 0H12.5C11.837 0 11.2011 0.263392 10.7322 0.732233C10.2634 1.20107 10 1.83696 10 2.5V10H7.5C5.51088 10 3.60322 10.7902 2.1967 12.1967C0.790177 13.6032 0 15.5109 0 17.5V32.5C0 34.4891 0.790177 36.3968 2.1967 37.8033C3.60322 39.2098 5.51088 40 7.5 40H10V47.5C10 48.163 10.2634 48.7989 10.7322 49.2678C11.2011 49.7366 11.837 50 12.5 50H37.5C38.163 50 38.7989 49.7366 39.2678 49.2678C39.7366 48.7989 40 48.163 40 47.5V40H42.5C44.4891 40 46.3968 39.2098 47.8033 37.8033C49.2098 36.3968 50 34.4891 50 32.5V17.5C50 15.5109 49.2098 13.6032 47.8033 12.1967C46.3968 10.7902 44.4891 10 42.5 10ZM15 5H35V10H15V5ZM35 45H15V35H35V45ZM45 32.5C45 33.163 44.7366 33.7989 44.2678 34.2678C43.7989 34.7366 43.163 35 42.5 35H40V32.5C40 31.837 39.7366 31.2011 39.2678 30.7322C38.7989 30.2634 38.163 30 37.5 30H12.5C11.837 30 11.2011 30.2634 10.7322 30.7322C10.2634 31.2011 10 31.837 10 32.5V35H7.5C6.83696 35 6.20107 34.7366 5.73223 34.2678C5.26339 33.7989 5 33.163 5 32.5V17.5C5 16.837 5.26339 16.2011 5.73223 15.7322C6.20107 15.2634 6.83696 15 7.5 15H42.5C43.163 15 43.7989 15.2634 44.2678 15.7322C44.7366 16.2011 45 16.837 45 17.5V32.5Z" fill="#343440"/>
</svg>
