<svg width="50" height="51" viewBox="0 0 50 51" fill="none" xmlns="http://www.w3.org/2000/svg">
<path d="M24.0489 3.68096C24.3483 2.75965 25.6517 2.75965 25.9511 3.68096L30.3883 17.3375C30.5222 17.7495 30.9062 18.0285 31.3394 18.0285H45.6987C46.6675 18.0285 47.0702 19.2681 46.2865 19.8375L34.6696 28.2777C34.3191 28.5323 34.1724 28.9837 34.3063 29.3957L38.7436 43.0523C39.0429 43.9736 37.9884 44.7397 37.2047 44.1703L25.5878 35.7301C25.2373 35.4755 24.7627 35.4755 24.4122 35.7301L12.7953 44.1703C12.0116 44.7397 10.9571 43.9736 11.2564 43.0523L15.6937 29.3957C15.8276 28.9837 15.6809 28.5323 15.3304 28.2777L3.71348 19.8375C2.92977 19.2681 3.33255 18.0285 4.30127 18.0285H18.6606C19.0938 18.0285 19.4778 17.7495 19.6117 17.3375L24.0489 3.68096Z" fill="#F45B49"/>
<mask id="mask0_544_5993" style="mask-type:alpha" maskUnits="userSpaceOnUse" x="25" y="0" width="24" height="48">
<rect x="25" y="0.753906" width="24" height="47" fill="#D9D9D9"/>
</mask>
<g mask="url(#mask0_544_5993)">
<path d="M24.0489 3.68096C24.3483 2.75965 25.6517 2.75965 25.9511 3.68096L30.3883 17.3375C30.5222 17.7495 30.9062 18.0285 31.3394 18.0285H45.6987C46.6675 18.0285 47.0702 19.2681 46.2865 19.8375L34.6696 28.2777C34.3191 28.5323 34.1724 28.9837 34.3063 29.3957L38.7436 43.0523C39.0429 43.9736 37.9884 44.7397 37.2047 44.1703L25.5878 35.7301C25.2373 35.4755 24.7627 35.4755 24.4122 35.7301L12.7953 44.1703C12.0116 44.7397 10.9571 43.9736 11.2564 43.0523L15.6937 29.3957C15.8276 28.9837 15.6809 28.5323 15.3304 28.2777L3.71348 19.8375C2.92977 19.2681 3.33255 18.0285 4.30127 18.0285H18.6606C19.0938 18.0285 19.4778 17.7495 19.6117 17.3375L24.0489 3.68096Z" fill="white"/>
</g>
</svg>
