<svg width="44" height="43" viewBox="0 0 44 43" fill="none" xmlns="http://www.w3.org/2000/svg">
<path d="M21.0489 1.68096C21.3483 0.759645 22.6517 0.759646 22.9511 1.68096L27.3883 15.3375C27.5222 15.7495 27.9062 16.0285 28.3394 16.0285H42.6987C43.6675 16.0285 44.0702 17.2681 43.2865 17.8375L31.6696 26.2777C31.3191 26.5323 31.1724 26.9837 31.3063 27.3957L35.7436 41.0523C36.0429 41.9736 34.9884 42.7397 34.2047 42.1703L22.5878 33.7301C22.2373 33.4755 21.7627 33.4755 21.4122 33.7301L9.79527 42.1703C9.01155 42.7397 7.95707 41.9736 8.25642 41.0523L12.6937 27.3957C12.8276 26.9837 12.6809 26.5323 12.3304 26.2777L0.713483 17.8375C-0.0702302 17.2681 0.332547 16.0285 1.30127 16.0285H15.6606C16.0938 16.0285 16.4778 15.7495 16.6117 15.3375L21.0489 1.68096Z" fill="#F45B49"/>
</svg>
