<svg width="584" height="625" viewBox="0 0 584 625" fill="none" xmlns="http://www.w3.org/2000/svg">
<path d="M878.691 279.956C899.746 287.092 907.863 312.584 894.812 330.581L811.404 445.605C801.26 459.594 799.611 478.021 807.108 493.589L867.739 619.482C877.222 639.174 865.288 662.479 843.767 666.294L699.331 691.897C682.898 694.81 669.242 706.22 663.453 721.873L613.385 857.254C605.934 877.4 581.529 885.172 563.801 873.044L444.668 791.543C430.893 782.12 413.154 780.708 398.063 787.834L265.418 850.465C245.654 859.797 222.441 847.684 218.792 826.134L195.46 688.364C192.575 671.327 180.574 657.247 164.209 651.699L29.647 606.086C8.59243 598.949 0.475042 573.458 13.5257 555.461L96.9338 440.437C107.078 426.448 108.727 408.021 101.23 392.453L40.5997 266.56C31.1158 246.868 43.0499 223.563 64.5714 219.748L209.007 194.145C225.44 191.232 239.096 179.822 244.885 164.169L294.954 28.7874C302.404 8.64148 326.81 0.869728 344.538 12.9977L463.67 94.4986C477.445 103.922 495.184 105.334 510.276 98.208L642.92 35.5773C662.685 26.2451 685.897 38.3579 689.547 59.9081L712.878 197.678C715.763 214.715 727.764 228.795 744.13 234.343L878.691 279.956Z" fill="#FFDAD1" stroke="#FFEFEB" stroke-width="14"/>
</svg>
