<svg width="52" height="52" viewBox="0 0 52 52" fill="none" xmlns="http://www.w3.org/2000/svg">
<path d="M26 45.5C30.3098 45.5 34.443 43.788 37.4905 40.7405C40.538 37.693 42.25 33.5598 42.25 29.25C42.25 24.9402 40.538 20.807 37.4905 17.7595C34.443 14.712 30.3098 13 26 13C21.6902 13 17.557 14.712 14.5095 17.7595C11.462 20.807 9.75 24.9402 9.75 29.25C9.75 33.5598 11.462 37.693 14.5095 40.7405C17.557 43.788 21.6902 45.5 26 45.5ZM26 48.75C20.8283 48.75 15.8684 46.6955 12.2114 43.0386C8.55446 39.3816 6.5 34.4217 6.5 29.25C6.5 24.0783 8.55446 19.1184 12.2114 15.4614C15.8684 11.8045 20.8283 9.75 26 9.75C31.1717 9.75 36.1316 11.8045 39.7886 15.4614C43.4455 19.1184 45.5 24.0783 45.5 29.25C45.5 34.4217 43.4455 39.3816 39.7886 43.0386C36.1316 46.6955 31.1717 48.75 26 48.75Z" fill="#F45B49"/>
<path d="M25.9996 16.25C26.4306 16.25 26.8439 16.4212 27.1487 16.726C27.4534 17.0307 27.6246 17.444 27.6246 17.875L27.5986 29.25C27.5986 29.681 27.4274 30.0943 27.1227 30.399C26.8179 30.7038 26.4046 30.875 25.9736 30.875C25.5427 30.875 25.1293 30.7038 24.8246 30.399C24.5198 30.0943 24.3486 29.681 24.3486 29.25L24.3746 17.875C24.3746 17.444 24.5458 17.0307 24.8506 16.726C25.1553 16.4212 25.5687 16.25 25.9996 16.25Z" fill="#F45B49"/>
<path d="M22.75 29.25C22.75 30.112 23.0924 30.9386 23.7019 31.5481C24.3114 32.1576 25.138 32.5 26 32.5C26.862 32.5 27.6886 32.1576 28.2981 31.5481C28.9076 30.9386 29.25 30.112 29.25 29.25C29.25 28.388 28.9076 27.5614 28.2981 26.9519C27.6886 26.3424 26.862 26 26 26C25.138 26 24.3114 26.3424 23.7019 26.9519C23.0924 27.5614 22.75 28.388 22.75 29.25ZM27.625 6.5V13H24.375V6.5H19.5C19.069 6.5 18.6557 6.3288 18.351 6.02405C18.0462 5.7193 17.875 5.30598 17.875 4.875C17.875 4.44402 18.0462 4.0307 18.351 3.72595C18.6557 3.4212 19.069 3.25 19.5 3.25H32.5C32.931 3.25 33.3443 3.4212 33.649 3.72595C33.9538 4.0307 34.125 4.44402 34.125 4.875C34.125 5.30598 33.9538 5.7193 33.649 6.02405C33.3443 6.3288 32.931 6.5 32.5 6.5H27.625Z" fill="#F45B49"/>
</svg>
