<svg width="30" height="30" viewBox="0 0 30 30" fill="none" xmlns="http://www.w3.org/2000/svg">
<path d="M15 26.25C17.4864 26.25 19.871 25.2623 21.6291 23.5041C23.3873 21.746 24.375 19.3614 24.375 16.875C24.375 14.3886 23.3873 12.004 21.6291 10.2459C19.871 8.48772 17.4864 7.5 15 7.5C12.5136 7.5 10.129 8.48772 8.37087 10.2459C6.61272 12.004 5.625 14.3886 5.625 16.875C5.625 19.3614 6.61272 21.746 8.37087 23.5041C10.129 25.2623 12.5136 26.25 15 26.25ZM15 28.125C12.0163 28.125 9.15483 26.9397 7.04505 24.83C4.93526 22.7202 3.75 19.8587 3.75 16.875C3.75 13.8913 4.93526 11.0298 7.04505 8.92005C9.15483 6.81026 12.0163 5.625 15 5.625C17.9837 5.625 20.8452 6.81026 22.955 8.92005C25.0647 11.0298 26.25 13.8913 26.25 16.875C26.25 19.8587 25.0647 22.7202 22.955 24.83C20.8452 26.9397 17.9837 28.125 15 28.125Z" fill="#188DE1"/>
<path d="M15.0004 9.375C15.249 9.375 15.4874 9.47377 15.6633 9.64959C15.8391 9.8254 15.9379 10.0639 15.9379 10.3125L15.9229 16.875C15.9229 17.1236 15.8241 17.3621 15.6483 17.5379C15.4724 17.7137 15.234 17.8125 14.9854 17.8125C14.7367 17.8125 14.4983 17.7137 14.3224 17.5379C14.1466 17.3621 14.0479 17.1236 14.0479 16.875L14.0629 10.3125C14.0629 10.0639 14.1616 9.8254 14.3374 9.64959C14.5133 9.47377 14.7517 9.375 15.0004 9.375Z" fill="#188DE1"/>
<path d="M13.125 16.875C13.125 17.3723 13.3225 17.8492 13.6742 18.2008C14.0258 18.5525 14.5027 18.75 15 18.75C15.4973 18.75 15.9742 18.5525 16.3258 18.2008C16.6775 17.8492 16.875 17.3723 16.875 16.875C16.875 16.3777 16.6775 15.9008 16.3258 15.5492C15.9742 15.1975 15.4973 15 15 15C14.5027 15 14.0258 15.1975 13.6742 15.5492C13.3225 15.9008 13.125 16.3777 13.125 16.875ZM15.9375 3.75V7.5H14.0625V3.75H11.25C11.0014 3.75 10.7629 3.65123 10.5871 3.47541C10.4113 3.2996 10.3125 3.06114 10.3125 2.8125C10.3125 2.56386 10.4113 2.3254 10.5871 2.14959C10.7629 1.97377 11.0014 1.875 11.25 1.875H18.75C18.9986 1.875 19.2371 1.97377 19.4129 2.14959C19.5887 2.3254 19.6875 2.56386 19.6875 2.8125C19.6875 3.06114 19.5887 3.2996 19.4129 3.47541C19.2371 3.65123 18.9986 3.75 18.75 3.75H15.9375Z" fill="#188DE1"/>
</svg>
