<svg width="422" height="350" viewBox="0 0 422 350" fill="none" xmlns="http://www.w3.org/2000/svg">
<path d="M-87.7367 114.865C-56.4472 110.347 9.62579 118.987 23.6018 189.689C41.0718 278.067 23.8053 309.918 87.1144 337.137C150.424 364.356 190.773 405.018 195.565 430.986" stroke="#A61C1C" stroke-opacity="0.37"/>
<path d="M154.163 -53.0795C182.723 -66.6584 244.539 -94.4491 276.527 -25.8141C316.51 59.9797 302.672 99.1136 370.073 108.989C437.474 118.865 495.739 165.417 507.163 190.723" stroke="#A61C1C" stroke-opacity="0.37"/>
<path d="M140.156 -76.9022C170.02 -92.5557 250.329 -50.1055 266.674 25.0224C285.349 110.854 309.551 145.912 382.88 150.822C456.208 155.732 511.219 182.318 525.254 206.743" stroke="#F59500"/>
<path d="M286 71.5455C286 104 268.077 111 245.967 111C223.858 111 199 96.5174 199 74.7273C199 52.9371 223.858 41 245.967 41C268.077 41 286 49.7553 286 71.5455Z" fill="#FFA6B8" style="mix-blend-mode:color-dodge"/>
<path d="M86.5346 159.812C71.3687 165.424 76.2261 198.817 92.6793 199.392C111.024 223.314 154.117 207.179 183.368 208.204C221.536 202.972 256.731 217.659 270.208 211.248C316.651 202.362 301.333 177.959 287.869 166.868C304.743 126.204 261.693 105.818 244.414 117.6C251.426 82.8901 218.361 63.9918 193.701 82.7808C158.587 61.5127 129.531 82.6603 139.804 109.521C86.4131 95.2422 80.6672 146.132 86.5346 159.812Z" fill="#DA3243" style="mix-blend-mode:difference"/>
<path d="M122.059 288.573C119.153 285.906 109.948 234.124 105.709 208.566C101.454 182.908 131.298 179.647 144.861 189.627C147.275 190.75 149.459 192.12 151.282 193.712C155.485 171.338 193.088 176.975 196.093 197.992C199.988 179.624 236.609 170.275 244.401 197.994C272.451 174.95 282.842 199.676 286.476 208.566C281.026 231.901 264.85 280.573 261.944 288.573C258.31 298.574 249.695 303.447 244.401 304.741C232.812 307.573 230.505 304.741 224.922 304.741H185.963H156.576C127.509 304.741 125.693 291.907 122.059 288.573Z" fill="#E479FF"/>
<path d="M195.613 80.9323C194.366 73.773 195.292 66.4359 198.293 59.7251C201.294 53.0136 206.255 47.1846 212.637 42.8818C219.02 38.5788 226.575 35.9702 234.473 35.3461C242.372 34.7221 250.304 36.1072 257.397 39.3472C264.491 42.5871 270.468 47.5548 274.677 53.7001C278.886 59.8448 281.166 66.9305 281.271 74.1795C281.376 81.4285 279.302 88.5669 275.273 94.8115C271.244 101.057 265.413 106.168 258.416 109.58" stroke="#343440"/>
<rect x="-0.736816" y="-0.00591657" width="7.3818" height="16.4215" transform="matrix(-0.742245 0.670129 -0.731388 -0.681962 230.415 113.737)" stroke="#733E52"/>
<rect x="0.561046" y="-0.441912" width="7.01866" height="17.1469" transform="matrix(0.127937 -0.991782 0.994155 0.107959 231.836 152.825)" stroke="#FF0000"/>
<rect x="0.588646" y="0.410309" width="7.70705" height="15.7162" transform="matrix(0.986939 -0.161097 0.190353 0.981716 111.568 128.802)" stroke="#733E52"/>
<rect x="-0.294045" y="0.621534" width="7.09273" height="17.0039" transform="matrix(0.362316 0.932055 -0.950406 0.311013 150.321 118.743)" stroke="#FF00B8"/>
<rect x="0.278082" y="0.627556" width="7.63875" height="15.869" transform="matrix(0.942948 0.332941 -0.386784 0.92217 154.125 131.333)" stroke="#BE0E8D"/>
<rect x="-0.213537" y="0.647978" width="7.15885" height="16.8741" transform="matrix(0.480843 0.876807 -0.907917 0.419149 204.905 133.834)" stroke="#FE5607"/>
<rect x="-0.611713" y="0.38051" width="7.04669" height="17.0931" transform="matrix(-0.245383 0.969426 -0.978042 -0.208406 188.661 121.066)" stroke="#FF00B8"/>
<rect x="-0.547229" y="-0.456349" width="7.72268" height="15.6809" transform="matrix(-0.996591 0.0825023 -0.097867 -0.995199 200.128 113.773)" stroke="#019389"/>
<rect x="-0.0931246" y="-0.67083" width="7.47374" height="16.2278" transform="matrix(-0.821877 -0.569664 0.635628 -0.771995 227.228 138.259)" stroke="#019389"/>
<rect x="0.321809" y="-0.610077" width="7.07335" height="17.0416" transform="matrix(-0.318604 -0.947888 0.962222 -0.272266 256.291 133.47)" stroke="#733E52"/>
<rect x="0.505891" y="0.494984" width="7.72817" height="15.6684" transform="matrix(0.99995 -0.00996113 0.0118325 0.99993 275.938 138.048)" stroke="#FF00B8"/>
<rect x="-0.225279" y="-0.644713" width="7.59758" height="15.9599" transform="matrix(-0.914868 -0.403753 0.46431 -0.885673 163.429 108.374)" stroke="#019389"/>
<circle cx="253.749" cy="59.6333" r="2.61666" stroke="#343440"/>
<circle cx="239.724" cy="78.3335" r="2.61666" stroke="#343440"/>
<circle cx="266.215" cy="93.9165" r="2.61666" stroke="#343440"/>
<circle cx="210.117" cy="62.7495" r="2.61666" stroke="#343440"/>
<circle cx="84.671" cy="21.4542" r="4.95415" stroke="#FF00B8"/>
<circle cx="397.894" cy="40.1536" r="3.39582" stroke="#A61C1C"/>
<circle cx="28.5708" cy="107.163" r="8.07081" stroke="#FA7B00"/>
<circle cx="377.637" cy="297.278" r="8.07081" stroke="#F73D45"/>
<path d="M114.639 204.717C118.878 230.275 128.082 282.057 130.989 284.724C134.622 288.058 136.439 298.059 165.506 298.059M114.639 204.717C127.719 183.382 146.733 191.382 154.606 198.05M114.639 204.717C103.133 201.939 84.4819 188.382 101.922 156.379C97.6828 141.377 97.5614 111.041 130.989 109.708C134.016 93.0396 152.425 64.0369 201.839 81.3718C218.795 79.7048 253.434 83.0383 256.34 109.708C272.691 111.374 303.938 123.042 298.124 156.379C307.207 167.491 318.469 192.716 290.856 204.717M165.506 298.059C176.32 298.059 189.398 298.059 201.839 298.059M165.506 298.059L154.606 198.05M290.856 204.717C285.406 228.052 273.78 276.724 270.873 284.724C267.24 294.725 250.889 298.059 245.439 298.059C244.061 298.059 240.123 298.059 234.539 298.059M290.856 204.717C287.223 195.827 274.143 182.048 250.889 198.05M250.889 198.05L234.539 298.059M250.889 198.05C223.012 175.382 206.574 188.605 201.839 198.05M234.539 298.059C226.265 298.059 214.376 298.059 201.839 298.059M201.839 298.059V198.05M201.839 198.05C193.967 188.048 173.499 174.046 154.606 198.05" stroke="#343440"/>
</svg>
